<svg width="16" height="16" viewBox="0 0 16 16" fill="none" xmlns="http://www.w3.org/2000/svg">
<path d="M8 15.1C8.33137 15.1 8.6 14.8314 8.6 14.5C8.6 14.1686 8.33137 13.9 8 13.9V15.1ZM8 0.9C7.66863 0.9 7.4 1.16863 7.4 1.5C7.4 1.83137 7.66863 2.1 8 2.1V0.9ZM12.35 9.85714C12.35 9.52577 12.0814 9.25714 11.75 9.25714C11.4186 9.25714 11.15 9.52577 11.15 9.85714H12.35ZM15.3583 14.1714C15.6896 14.1714 15.9583 13.9028 15.9583 13.5714C15.9583 13.2401 15.6896 12.9714 15.3583 12.9714V14.1714ZM0.635178 1.82857C0.303807 1.82857 0.0351779 2.0972 0.0351779 2.42857C0.0351779 2.75994 0.303807 3.02857 0.635178 3.02857V1.82857ZM3.65 6.14286C3.65 6.47423 3.91863 6.74286 4.25 6.74286C4.58137 6.74286 4.85 6.47423 4.85 6.14286H3.65ZM3.83779 2.61955L3.48511 3.10496L3.83779 2.61955ZM4.05902 2.84079L4.54443 2.48811L4.05902 2.84079ZM11.941 13.1592L11.4556 13.5119L11.941 13.1592ZM12.1622 13.3804L12.5149 12.895L12.1622 13.3804ZM8 13.9C4.70158 13.9 2.0375 11.2531 2.0375 8H0.837501C0.837501 11.9266 4.04969 15.1 8 15.1V13.9ZM8 2.1C11.2984 2.1 13.9625 4.74692 13.9625 8H15.1625C15.1625 4.07338 11.9503 0.9 8 0.9V2.1ZM3.57076 2.41998C1.90835 3.71825 0.837501 5.73457 0.837501 8H2.0375C2.0375 6.12221 2.92353 4.44802 4.30936 3.36574L3.57076 2.41998ZM13.9625 8C13.9625 9.87779 13.0765 11.552 11.6906 12.6343L12.4292 13.58C14.0917 12.2818 15.1625 10.2654 15.1625 8H13.9625ZM11.15 9.85714V11.7714H12.35V9.85714H11.15ZM13.55 14.1714H15.3583V12.9714H13.55V14.1714ZM0.635178 3.02857H2.45V1.82857H0.635178V3.02857ZM3.65 4.22857V6.14286H4.85V4.22857H3.65ZM2.45 3.02857C2.83834 3.02857 3.0814 3.02939 3.26192 3.04895C3.43122 3.0673 3.47301 3.09617 3.48511 3.10496L4.19046 2.13414C3.9397 1.95196 3.66257 1.88534 3.39118 1.85594C3.13101 1.82775 2.81161 1.82857 2.45 1.82857V3.02857ZM4.85 4.22857C4.85 3.86696 4.85082 3.54756 4.82264 3.2874C4.79323 3.016 4.72662 2.73888 4.54443 2.48811L3.57361 3.19346C3.5824 3.20556 3.61128 3.24736 3.62962 3.41665C3.64918 3.59717 3.65 3.84023 3.65 4.22857H4.85ZM3.48511 3.10496C3.51907 3.12964 3.54894 3.1595 3.57361 3.19346L4.54443 2.48811C4.44574 2.35228 4.32629 2.23283 4.19046 2.13414L3.48511 3.10496ZM11.15 11.7714C11.15 12.133 11.1492 12.4524 11.1774 12.7126C11.2068 12.984 11.2734 13.2611 11.4556 13.5119L12.4264 12.8065C12.4176 12.7944 12.3887 12.7526 12.3704 12.5833C12.3508 12.4028 12.35 12.1598 12.35 11.7714H11.15ZM13.55 12.9714C13.1617 12.9714 12.9186 12.9706 12.7381 12.951C12.5688 12.9327 12.527 12.9038 12.5149 12.895L11.8095 13.8659C12.0603 14.048 12.3374 14.1147 12.6088 14.1441C12.869 14.1723 13.1884 14.1714 13.55 14.1714V12.9714ZM11.4556 13.5119C11.5543 13.6477 11.6737 13.7672 11.8095 13.8659L12.5149 12.895C12.4809 12.8704 12.4511 12.8405 12.4264 12.8065L11.4556 13.5119Z" fill="#2F2E3F"/>
</svg>
